<svg width="512" height="512" version="1.1" xmlns="http://www.w3.org/2000/svg" desc="Created with imagetracer.js version 1.2.6" ><path fill="rgb(0,0,0)" stroke="rgb(0,0,0)" stroke-width="1" opacity="0" d="M 0 0 L 511.5 0 L 512 0.5 L 512 137.5 L 511 137.5 Q 508.1 122.9 497.5 116 L 483.5 110 L 468.5 110 L 452.5 118 L 255.5 314 L 59.5 118 L 43.5 110 L 28.5 110 Q 13.6 113.5 6 124.5 L 2 131.5 L 0.5 138 L 0 0 Z " /><path fill="rgb(0,0,0)" stroke="rgb(0,0,0)" stroke-width="1" opacity="0" d="M 0.5 154 L 1 157.5 L 7 168.5 L 233.5 395 L 248.5 402 L 263.5 402 L 278.5 395 L 505 168.5 L 510 160.5 L 511.5 154 L 512 512 L 0 512 L 0.5 154 Z " /><path fill="rgb(51,51,51)" stroke="rgb(51,51,51)" stroke-width="1" opacity="1" d="M 28.5 110 L 43.5 110 L 59.5 118 L 256.5 314 L 452.5 118 L 468.5 110 L 483.5 110 Q 498.4 113.5 506 124.5 L 512 138.5 L 512 153.5 L 510 160.5 L 505 168.5 L 278.5 395 L 263.5 402 L 248.5 402 L 233.5 395 L 7 168.5 L 0 153.5 L 0 138.5 Q 3.5 123.5 14.5 116 L 28.5 110 Z " /></svg>